<svg width="69" height="63" viewBox="0 0 69 63" fill="none" xmlns="http://www.w3.org/2000/svg">
<path d="M11.1987 31.6458C11.1987 27.1779 15.1892 23.546 20.0983 23.546H31.5816V18.5816H20.0983C12.1748 18.5816 5.74414 24.4344 5.74414 31.6458C5.74414 38.8573 12.1748 44.7101 20.0983 44.7101H31.5816V39.7457H20.0983C15.1892 39.7457 11.1987 36.1138 11.1987 31.6458ZM22.9691 34.2587H45.9357V29.033H22.9691V34.2587ZM48.8066 18.5816H37.3233V23.546H48.8066C53.7157 23.546 57.7061 27.1779 57.7061 31.6458C57.7061 36.1138 53.7157 39.7457 48.8066 39.7457H37.3233V44.7101H48.8066C56.7301 44.7101 63.1607 38.8573 63.1607 31.6458C63.1607 24.4344 56.7301 18.5816 48.8066 18.5816Z" fill="black"/>
</svg>
